<!-- Экспортировано из Adobe Illustrator -->
<svg height="45" viewBox="0 0 100 100" width="45" x="0px"
    xmlns="http://www.w3.org/2000/svg" y="0px">
    <g style="fill: white">
        <polygon points="50.019,10.907 61.034,17.229 78.22,17.229 50.019,1.043 21.818,17.229 39.003,17.229"/>
        <polygon points="17.594,66.849 17.643,54.149 9.146,39.211 9.02,71.727 37.033,88.236 28.536,73.298"/>
        <polygon points="82.325,67.254 71.377,73.692 62.865,88.621 90.894,72.14 90.8,39.624 82.289,54.553"/>
        <path d="M94.182,22.436H36.928l28.627,49.584 l15.792-27.352l-3.473-4.149l8.456-4.481L94.182,22.436z M65.641,54.497l-5.345-9.258h10.69L65.641,54.497z M76.196,36.133H55.085 l-2.773-4.803h26.657L76.196,36.133z"/>
        <polygon points="42.251,58.641 37.667,60 55.126,90.082 49.999,98.957 5.818,22.441 16.053,22.441 31.433,49.261 33.084,42.891 21.432,22.441 31.686,22.441 42.794,41.687 40.406,49.863 46.717,48.484 62.933,76.566 57.767,85.499"/>
    </g>
</svg>